<?xml version="1.0" standalone="no"?>
<!DOCTYPE svg PUBLIC "-//W3C//DTD SVG 20010904//EN"
 "http://www.w3.org/TR/2001/REC-SVG-20010904/DTD/svg10.dtd">
<svg version="1.0" xmlns="http://www.w3.org/2000/svg"
 width="4130.000000pt" height="1449.000000pt" viewBox="0 0 4130.000000 1449.000000"
 preserveAspectRatio="xMidYMid meet">

<g transform="translate(0.000000,1449.000000) scale(0.100000,-0.100000)"
fill="#000000" stroke="none">
<path d="M13480 6775 l0 -4885 185 0 185 0 0 4885 0 4885 -185 0 -185 0 0
-4885z"/>
<path d="M5249 11602 c-15 -9 -65 -44 -111 -78 -46 -34 -91 -63 -99 -66 -7 -3
-72 15 -144 39 -90 30 -132 40 -140 32 -7 -7 3 -47 33 -134 23 -67 42 -130 42
-138 0 -8 -36 -63 -80 -123 -44 -59 -80 -116 -80 -126 0 -16 12 -18 139 -18
l138 0 39 -43 c22 -23 62 -75 89 -115 69 -100 78 -97 126 47 24 73 47 124 64
140 17 17 63 38 143 62 151 47 153 53 35 136 -49 34 -101 76 -117 92 -28 29
-28 30 -30 167 0 81 -5 139 -11 141 -5 1 -22 -5 -36 -15z"/>
<path d="M33680 10694 c-36 -7 -80 -13 -99 -14 -19 0 -57 -6 -85 -14 -28 -8
-71 -19 -96 -26 -147 -37 -324 -113 -401 -172 -20 -15 -40 -28 -44 -28 -22 0
-181 -148 -247 -230 -41 -51 -128 -196 -128 -213 0 -7 -6 -23 -13 -37 -77
-148 -104 -477 -57 -710 18 -91 71 -218 121 -295 58 -88 173 -211 254 -273 33
-26 65 -50 70 -54 71 -56 152 -103 265 -151 19 -9 56 -25 82 -36 26 -12 51
-21 56 -21 5 0 23 -7 38 -15 16 -8 36 -15 44 -15 9 0 20 -4 25 -9 6 -5 26 -14
45 -19 44 -13 95 -31 137 -49 17 -7 38 -13 47 -13 9 0 24 -4 34 -10 21 -12 98
-40 132 -47 14 -3 34 -12 45 -19 11 -8 27 -14 36 -14 10 0 30 -6 46 -14 15 -8
46 -22 68 -32 22 -9 47 -20 55 -25 8 -4 40 -20 70 -36 63 -32 150 -115 150
-143 0 -10 8 -26 17 -36 12 -12 19 -38 21 -83 8 -136 -71 -232 -224 -274 -84
-24 -171 -22 -209 3 -16 11 -38 20 -47 20 -16 0 -78 29 -88 41 -3 3 -24 18
-47 32 -22 14 -49 41 -58 59 -23 45 -53 145 -57 188 l-3 35 -577 0 c-317 0
-579 -3 -582 -6 -19 -19 48 -358 85 -429 4 -8 21 -44 38 -80 71 -152 180 -282
343 -411 59 -46 117 -92 129 -101 12 -10 28 -18 36 -18 7 0 13 -3 13 -8 0 -9
115 -62 205 -95 96 -35 112 -40 150 -47 22 -4 53 -12 68 -19 16 -6 45 -11 65
-11 20 0 57 -8 82 -17 67 -24 635 -24 728 0 35 9 76 17 90 17 15 0 40 7 56 15
15 8 39 15 52 15 22 0 67 16 127 46 16 8 35 14 43 14 22 0 229 115 259 143 7
7 23 19 36 27 34 21 239 227 239 240 0 6 10 21 21 33 12 12 28 36 35 52 14 28
21 42 44 83 6 9 13 24 16 32 3 8 12 27 20 42 8 14 14 35 14 45 0 11 7 28 15
39 8 10 15 33 15 50 0 17 7 49 16 70 24 57 24 441 0 496 -9 21 -16 50 -16 66
0 16 -7 35 -15 42 -8 7 -15 20 -15 29 0 38 -57 128 -140 221 -181 202 -304
288 -585 409 -27 12 -59 27 -69 33 -11 6 -31 14 -45 18 -14 5 -51 18 -81 30
-30 12 -66 25 -80 30 -14 5 -50 18 -80 30 -30 11 -86 32 -125 45 -172 59 -291
110 -336 146 -20 16 -42 29 -49 29 -6 0 -47 27 -91 60 -82 63 -109 103 -124
184 -9 46 12 171 32 187 7 6 13 17 13 23 0 6 24 27 53 46 l52 35 120 -1 c116
0 122 -1 179 -33 32 -18 69 -44 83 -59 32 -35 81 -139 89 -190 4 -29 12 -42
28 -47 11 -4 275 -9 586 -12 478 -4 568 -3 584 9 17 14 18 19 6 79 -7 35 -15
89 -19 119 -6 51 -15 84 -43 165 -6 17 -13 42 -15 57 -3 15 -11 33 -19 39 -8
6 -14 19 -14 28 -1 9 -12 34 -25 56 -14 22 -29 49 -34 60 -5 11 -20 31 -33 45
-13 14 -36 41 -51 60 -89 110 -271 262 -359 300 -12 5 -30 14 -38 20 -63 41
-267 113 -405 144 -207 46 -602 62 -755 30z"/>
<path d="M15190 8692 l0 -1959 227 -6 c124 -4 533 -7 907 -7 563 0 693 3 751
15 38 8 88 15 110 15 22 1 58 7 80 15 22 8 51 15 65 15 14 0 38 7 54 15 15 8
38 15 50 15 11 0 34 7 50 15 15 8 35 15 43 15 8 0 31 7 51 16 21 8 51 21 67
28 56 24 190 90 195 95 3 3 14 11 25 18 11 7 43 26 70 43 28 17 59 36 70 43
86 53 246 200 355 327 77 89 190 262 234 356 20 43 44 92 52 107 7 16 14 35
14 42 0 7 6 26 14 42 18 37 36 90 45 133 4 19 13 45 19 57 7 12 12 37 12 57 0
19 5 47 11 63 7 15 15 71 20 123 4 52 13 143 19 201 9 82 9 130 0 210 -6 57
-15 149 -19 204 -4 55 -13 110 -19 122 -7 12 -12 38 -12 58 0 20 -5 45 -10 56
-6 10 -14 38 -19 61 -11 50 -28 102 -47 140 -8 14 -14 35 -14 46 0 11 -7 25
-15 32 -8 7 -15 23 -15 35 0 12 -7 28 -15 35 -8 7 -15 20 -15 30 0 10 -7 23
-15 30 -8 7 -15 18 -15 24 0 7 -20 43 -45 80 -25 38 -45 71 -45 74 0 18 -187
222 -278 304 -133 118 -289 225 -432 294 -52 26 -103 50 -112 55 -24 12 -96
38 -133 49 -16 4 -43 13 -60 19 -65 22 -236 60 -375 82 -54 9 -329 14 -987 16
l-913 4 0 -1959z m1600 993 c80 -9 159 -21 175 -27 17 -6 44 -12 60 -15 31 -5
51 -12 145 -57 128 -61 153 -79 282 -211 58 -59 88 -101 117 -160 77 -156 102
-269 108 -486 7 -230 -19 -369 -100 -537 -122 -254 -322 -402 -642 -475 -78
-19 -261 -23 -497 -12 l-148 7 0 987 c0 543 3 991 7 994 12 13 349 7 493 -8z"/>
<path d="M19287 10643 c-4 -3 -7 -883 -7 -1955 0 -1846 1 -1949 18 -1956 9 -4
575 -7 1257 -7 l1240 0 -2 429 c-1 236 -4 435 -7 442 -4 12 -92 14 -504 14
-274 0 -587 3 -695 7 l-197 6 0 339 0 338 623 2 622 3 -2 409 c-2 319 -5 411
-15 418 -7 4 -218 8 -468 9 -250 1 -522 4 -605 8 l-150 6 -3 302 -2 303 702 2
703 3 5 295 c3 162 2 300 -2 306 -4 6 -9 71 -10 145 l-3 134 -1246 3 c-685 1
-1249 -1 -1252 -5z"/>
<path d="M22337 10643 c-4 -3 -7 -885 -7 -1958 l0 -1952 227 -6 c124 -4 372
-7 550 -7 l323 0 0 1064 c0 699 3 1067 10 1071 6 3 10 2 10 -4 0 -5 6 -16 13
-23 6 -7 20 -29 31 -48 10 -19 24 -39 30 -45 6 -5 20 -27 31 -49 11 -21 26
-40 33 -43 6 -3 12 -10 12 -16 0 -16 89 -147 127 -186 18 -19 33 -40 33 -47 0
-7 6 -17 13 -21 14 -9 32 -37 47 -70 5 -13 14 -23 19 -23 5 0 12 -8 15 -17 13
-35 37 -73 47 -73 5 0 9 -5 9 -10 0 -12 41 -73 53 -78 4 -2 7 -7 7 -12 0 -4
43 -72 95 -150 52 -78 95 -144 95 -147 0 -3 14 -22 30 -43 17 -21 30 -41 30
-45 0 -4 14 -24 30 -45 17 -21 30 -41 30 -45 0 -4 14 -24 30 -45 17 -21 30
-41 30 -45 0 -4 14 -24 30 -45 17 -21 30 -41 30 -45 0 -4 14 -24 30 -45 17
-21 30 -41 30 -45 0 -4 14 -24 30 -45 17 -21 30 -41 30 -45 0 -4 14 -24 30
-45 17 -21 30 -41 30 -45 0 -4 14 -24 30 -45 17 -21 30 -41 30 -45 0 -4 14
-24 30 -45 17 -21 30 -41 30 -45 0 -4 14 -24 30 -45 17 -21 30 -41 30 -44 0
-6 39 -65 50 -76 3 -3 17 -24 32 -46 l27 -42 123 -7 c68 -3 317 -5 553 -3
l430 3 -2 1830 c-3 1888 -4 2070 -20 2086 -5 5 -226 8 -544 7 l-534 -3 -7
-1000 c-6 -984 -11 -1145 -29 -1145 -5 0 -9 7 -9 16 0 9 -12 33 -27 53 -37 48
-52 72 -59 94 -4 9 -10 17 -15 17 -8 0 -27 31 -48 78 -6 12 -15 22 -21 22 -5
0 -10 9 -10 20 0 10 -6 23 -12 27 -15 9 -33 37 -48 71 -5 12 -14 22 -19 22 -5
0 -12 8 -15 18 -8 22 -17 36 -101 161 -38 57 -78 118 -88 135 -11 17 -27 40
-36 51 -9 11 -26 37 -36 58 -11 20 -23 37 -27 37 -3 0 -10 10 -14 22 -3 12
-10 26 -15 32 -41 49 -49 60 -49 69 0 5 -13 26 -30 47 -16 21 -30 40 -30 43 0
3 -34 55 -75 116 -41 62 -75 114 -75 117 0 4 -13 23 -30 44 -16 21 -30 41 -30
45 0 4 -13 24 -30 45 -16 21 -30 41 -30 45 0 4 -13 24 -30 45 -16 21 -30 41
-30 44 0 9 -43 70 -52 74 -5 2 -8 9 -8 16 0 7 -9 24 -20 37 -32 39 -35 43 -47
69 -6 14 -36 54 -67 90 -31 36 -56 69 -56 73 0 10 -43 71 -52 75 -5 2 -8 9 -9
15 0 7 -15 32 -33 57 l-33 45 -540 3 c-297 1 -543 -1 -546 -5z"/>
<path d="M26597 10643 c-12 -11 -8 -3901 3 -3908 6 -4 252 -9 546 -12 454 -5
537 -4 545 8 5 8 9 468 9 1066 0 885 2 1052 14 1047 7 -3 18 -15 25 -27 13
-26 34 -60 41 -67 12 -12 50 -70 50 -76 0 -3 12 -23 28 -43 36 -48 51 -72 58
-93 3 -9 12 -19 20 -22 8 -3 14 -11 14 -19 0 -7 14 -28 31 -45 18 -18 177
-252 355 -520 178 -268 327 -491 331 -497 5 -5 20 -28 33 -50 13 -22 27 -42
30 -45 3 -3 17 -23 30 -45 13 -22 28 -44 33 -50 9 -11 146 -217 162 -243 6 -9
22 -33 36 -52 14 -19 29 -42 32 -50 4 -8 31 -49 60 -90 l53 -75 69 -6 c39 -4
287 -7 553 -8 l482 -1 0 1768 c0 973 -3 1857 -7 1965 l-6 197 -544 0 -543 0 0
-968 c0 -533 -3 -1023 -7 -1090 l-6 -121 -20 40 c-11 23 -26 43 -33 46 -8 3
-14 11 -14 18 0 6 -13 31 -30 53 -16 23 -30 45 -30 48 0 3 -13 23 -30 44 -16
21 -30 41 -30 44 0 7 -41 68 -51 76 -4 3 -9 15 -13 28 -4 12 -11 22 -16 22 -5
0 -19 20 -31 45 -12 25 -26 45 -30 45 -4 0 -17 19 -29 43 -12 23 -28 46 -36
50 -8 4 -14 16 -14 25 0 10 -13 32 -30 50 -16 18 -30 39 -30 45 0 7 -13 27
-30 45 -16 18 -30 38 -30 44 0 5 -13 27 -30 48 -16 21 -30 41 -30 45 0 4 -13
24 -30 45 -16 21 -30 41 -30 44 0 9 -43 70 -52 74 -5 2 -8 10 -8 17 0 8 -6 20
-13 27 -7 7 -24 31 -37 53 -13 22 -27 42 -30 45 -3 3 -17 23 -30 45 -13 22
-27 42 -30 45 -4 3 -17 24 -30 48 -13 23 -27 42 -31 42 -4 0 -11 10 -15 23 -4
12 -20 38 -35 58 -16 20 -29 40 -29 44 0 4 -13 24 -30 45 -16 21 -30 41 -30
45 0 4 -13 24 -30 45 -16 21 -30 40 -30 43 0 3 -20 35 -45 71 -25 37 -45 70
-45 75 0 4 -15 23 -33 42 -18 19 -72 94 -121 167 l-88 132 -542 0 c-299 0
-546 -3 -549 -7z"/>
<path d="M30867 10643 c-4 -3 -7 -883 -7 -1955 0 -1733 2 -1949 15 -1954 9 -4
257 -7 553 -8 l537 -1 2 1765 c2 971 -1 1853 -5 1960 l-7 195 -541 3 c-297 1
-544 -1 -547 -5z"/>
<path d="M36302 10638 c-5 -7 -15 -49 -21 -93 -12 -90 -27 -178 -42 -245 -5
-25 -13 -74 -18 -110 -14 -99 -31 -198 -47 -271 -8 -37 -14 -82 -14 -100 0
-19 -7 -56 -15 -83 -8 -27 -15 -65 -15 -85 0 -20 -7 -58 -15 -85 -8 -27 -15
-68 -15 -90 0 -23 -7 -63 -15 -90 -8 -27 -15 -67 -15 -89 0 -21 -7 -63 -16
-93 -8 -29 -14 -70 -12 -91 l3 -38 165 -4 c91 -2 253 -4 360 -5 l195 -1 24 50
c14 28 31 66 39 85 8 19 21 48 28 63 8 16 14 35 14 42 0 7 6 26 14 42 8 15 22
46 31 68 10 22 24 53 31 68 8 16 14 35 14 42 0 7 7 27 15 44 8 17 22 45 30 62
8 17 15 39 15 49 0 9 7 23 15 30 8 7 15 22 15 34 0 12 7 31 15 42 8 10 15 29
15 40 0 12 7 27 15 34 8 7 15 18 15 26 0 7 7 30 16 51 9 21 23 54 31 73 8 19
21 48 29 63 8 16 14 33 14 39 0 5 7 26 16 46 44 101 56 128 63 142 5 9 12 31
15 50 11 52 34 115 72 193 8 16 14 37 14 47 0 10 5 22 10 25 6 3 10 13 10 21
0 12 -77 14 -544 14 -423 0 -546 -3 -554 -12z"/>
<path d="M7125 10374 c-22 -15 -54 -37 -71 -50 -38 -30 -44 -30 -132 0 -82 28
-82 28 -52 -59 11 -32 20 -68 20 -81 0 -13 -22 -52 -50 -88 -27 -36 -50 -68
-50 -71 0 -3 37 -5 83 -5 83 0 83 0 118 -37 19 -21 48 -55 63 -76 15 -20 31
-35 36 -32 4 3 17 36 29 73 25 83 47 105 134 132 37 11 67 24 67 28 0 4 -22
22 -49 40 -91 63 -100 76 -103 170 l-3 84 -40 -28z"/>
<path d="M3346 10253 c22 -62 16 -199 -11 -265 -6 -15 -3 -16 47 -2 79 21 165
17 260 -12 15 -4 15 -1 1 47 -16 52 -14 195 3 248 7 23 5 23 -22 16 -16 -4
-40 -10 -54 -12 -14 -2 -41 -6 -61 -9 -20 -3 -64 1 -98 10 -35 9 -66 16 -71
16 -4 0 -2 -17 6 -37z"/>
<path d="M5100 9624 c-19 -8 -110 -90 -202 -182 -143 -141 -171 -175 -188
-220 -23 -61 -25 -88 -8 -146 10 -36 375 -406 3022 -3055 2108 -2110 3023
-3019 3051 -3032 57 -27 130 -24 191 6 62 31 351 320 379 380 26 53 25 128 -3
182 -32 62 -6012 6039 -6066 6064 -49 22 -128 24 -176 3z m238 -316 c64 -62
417 -414 785 -782 l668 -669 -158 -159 -158 -158 -772 772 c-522 522 -776 783
-783 804 -16 48 1 79 98 178 161 164 165 164 320 14z"/>
<path d="M7628 8994 l-48 -36 -60 20 c-33 10 -60 19 -60 18 0 -1 7 -23 15 -50
21 -69 20 -77 -20 -129 -19 -25 -35 -47 -35 -49 0 -2 23 -2 52 -2 61 2 85 -11
123 -66 31 -44 40 -44 50 1 11 48 61 98 112 110 l44 12 -55 49 c-55 49 -56 51
-56 104 0 30 -3 54 -7 54 -5 0 -29 -17 -55 -36z"/>
<path d="M8981 8688 c12 -42 12 -134 0 -176 l-10 -33 37 7 c48 10 117 9 165 0
l37 -7 -7 43 c-10 55 -10 113 0 161 l8 37 -43 -7 c-54 -10 -101 -10 -155 0
l-42 7 10 -32z"/>
<path d="M3229 8498 c53 -125 59 -296 14 -431 -16 -48 -29 -87 -28 -87 1 0 16
7 33 15 103 52 319 58 450 12 39 -14 72 -24 72 -22 0 1 -7 20 -16 41 -9 21
-18 47 -20 58 -3 12 -8 32 -11 46 -7 34 -8 194 0 252 4 25 16 70 27 100 11 29
20 54 20 55 0 1 -33 -10 -72 -24 -65 -23 -88 -26 -203 -27 -127 0 -171 8 -268
49 -16 7 -16 4 2 -37z"/>
<path d="M5140 7640 c-36 -27 -74 -50 -86 -50 -11 0 -53 11 -92 24 -82 28 -84
27 -52 -56 31 -82 27 -107 -30 -179 l-49 -64 82 -3 c77 -3 84 -5 115 -35 19
-18 47 -51 63 -74 17 -24 34 -43 38 -43 4 0 16 29 26 65 22 83 65 125 148 144
31 7 59 16 62 21 3 5 -20 27 -52 48 -91 62 -97 72 -103 167 l-5 84 -65 -49z"/>
<path d="M5770 6000 c-38 -34 -68 -37 -129 -15 -22 8 -41 11 -41 8 0 -3 8 -30
17 -59 l16 -53 -29 -41 c-64 -90 -64 -81 0 -74 l57 7 54 -56 53 -56 12 44 c15
53 51 89 108 106 46 13 53 24 23 34 -11 3 -36 24 -55 45 -31 35 -36 47 -36 90
0 28 -3 50 -7 50 -5 -1 -24 -14 -43 -30z"/>
<path d="M31330 5378 c-10 -4 -47 -10 -81 -14 -34 -4 -74 -13 -88 -20 -14 -8
-34 -14 -43 -14 -16 0 -75 -22 -108 -41 -8 -5 -34 -17 -58 -28 -23 -11 -68
-40 -100 -64 -66 -52 -203 -192 -223 -230 -71 -134 -88 -169 -94 -198 -4 -19
-11 -38 -15 -44 -4 -5 -11 -26 -15 -45 -4 -19 -11 -39 -15 -45 -22 -29 -29
-307 -10 -430 18 -120 31 -167 64 -231 14 -29 26 -55 26 -58 0 -10 102 -161
112 -164 4 -2 8 -9 8 -15 0 -7 25 -34 55 -62 120 -109 106 -99 263 -181 46
-24 91 -44 100 -44 9 0 31 -7 47 -16 17 -8 82 -22 145 -29 128 -15 308 -6 392
20 26 8 53 15 62 15 8 0 27 6 43 14 15 8 53 26 83 40 142 65 287 186 355 295
6 9 23 35 38 58 15 24 27 47 27 52 0 5 7 14 15 21 8 7 17 28 21 48 4 19 13 47
20 61 8 14 14 35 14 46 0 12 5 26 10 31 31 31 53 370 29 459 -6 22 -14 60 -19
85 -15 84 -90 251 -147 326 -18 23 -33 47 -33 51 0 11 -143 153 -153 153 -4 0
-31 17 -60 39 -59 44 -194 111 -224 111 -10 0 -24 5 -29 10 -26 26 -363 57
-414 38z m250 -226 c30 -5 65 -14 77 -20 12 -7 30 -12 40 -12 33 0 196 -101
250 -155 29 -29 53 -57 53 -62 0 -6 9 -18 19 -27 26 -23 74 -125 105 -221 50
-152 44 -405 -11 -563 -16 -45 -35 -88 -41 -94 -7 -7 -12 -18 -12 -26 0 -14
-57 -92 -76 -104 -7 -4 -14 -18 -17 -30 -4 -13 -19 -31 -34 -40 -15 -9 -43
-30 -61 -46 -41 -37 -145 -92 -175 -92 -12 0 -34 -8 -47 -17 -21 -15 -50 -17
-195 -18 -168 0 -171 0 -265 34 -52 18 -112 46 -132 62 -20 16 -41 29 -45 29
-17 0 -109 96 -149 155 -65 96 -100 174 -115 255 -4 25 -13 72 -19 105 -13 67
-6 304 10 333 5 9 12 38 15 64 3 25 13 52 20 58 8 7 15 18 15 24 0 18 31 78
60 116 39 51 152 164 189 190 59 41 165 90 196 91 17 0 50 6 75 12 49 13 181
12 270 -1z"/>
<path d="M37140 5363 c-101 -3 -117 -6 -137 -25 -13 -12 -23 -29 -23 -39 0 -9
-7 -22 -15 -29 -8 -7 -15 -19 -15 -28 0 -18 -129 -280 -142 -288 -4 -3 -8 -12
-8 -21 0 -11 -240 -512 -255 -531 -1 -1 -9 0 -18 4 -15 6 -32 36 -147 278 -34
70 -110 228 -171 349 -60 121 -109 228 -109 238 0 9 -7 19 -15 23 -8 3 -15 16
-15 30 0 13 -7 27 -16 30 -25 9 -272 7 -278 -3 -3 -5 1 -14 9 -21 8 -7 15 -20
15 -30 0 -10 7 -23 15 -30 8 -7 15 -21 15 -31 0 -10 5 -21 11 -24 5 -4 14 -17
20 -28 5 -12 13 -30 19 -39 5 -10 15 -26 20 -35 6 -10 13 -25 16 -33 11 -27
15 -35 44 -85 16 -27 50 -90 75 -140 25 -49 50 -97 55 -105 4 -8 11 -22 14
-30 4 -8 18 -35 32 -60 14 -25 59 -108 99 -185 40 -77 94 -180 121 -230 l49
-90 5 -370 5 -370 115 0 115 0 5 365 c5 341 6 367 25 402 25 46 94 177 152
288 45 87 56 107 73 138 6 9 13 24 16 32 3 8 10 22 15 30 5 8 36 69 70 135 33
66 80 156 104 200 24 44 65 122 91 173 25 50 50 95 55 98 5 3 9 12 9 21 0 9 8
25 17 35 15 17 15 20 3 28 -8 6 -17 9 -20 8 -3 -1 -57 -4 -120 -5z"/>
<path d="M22920 5352 c-6 -2 -10 -14 -10 -26 0 -12 -5 -27 -12 -34 -12 -12
-33 -63 -48 -117 -11 -40 -29 -92 -46 -133 -8 -18 -14 -41 -14 -50 0 -10 -5
-23 -12 -30 -12 -12 -33 -63 -48 -117 -11 -40 -29 -92 -46 -133 -8 -18 -14
-41 -14 -50 0 -10 -5 -23 -12 -30 -12 -12 -33 -63 -48 -117 -15 -53 -49 -147
-81 -220 -9 -22 -25 -65 -34 -95 -9 -30 -20 -62 -24 -70 -5 -9 -12 -31 -16
-50 -4 -19 -11 -41 -16 -50 -20 -36 -49 -110 -49 -124 0 -8 -4 -17 -9 -20 -5
-4 -12 -24 -16 -46 -4 -22 -10 -42 -15 -45 -4 -3 -11 -21 -15 -41 -3 -20 -10
-44 -15 -53 -21 -39 -50 -108 -50 -118 0 -6 -7 -24 -15 -39 -8 -16 -15 -39
-15 -51 0 -12 -4 -25 -10 -28 -19 -12 -11 -44 13 -50 12 -3 69 -5 127 -3 l105
3 14 29 c8 17 18 44 22 60 11 44 37 115 60 162 10 22 26 63 34 90 27 93 -14
85 459 85 285 0 423 -4 431 -11 8 -6 16 -29 20 -51 4 -21 10 -41 15 -44 5 -3
11 -23 15 -45 4 -22 10 -42 15 -45 4 -3 11 -22 15 -42 4 -21 10 -42 15 -48 4
-5 10 -23 14 -40 4 -16 13 -37 21 -45 7 -8 15 -24 17 -35 3 -19 12 -20 131
-23 147 -3 151 -1 113 69 -13 25 -27 60 -31 78 -4 18 -13 44 -21 59 -8 15 -14
34 -14 43 0 9 -7 30 -15 45 -8 16 -15 36 -15 44 0 8 -14 42 -30 75 -16 33 -30
67 -30 76 0 9 -7 30 -15 45 -8 16 -15 36 -15 45 0 9 -7 30 -15 45 -8 16 -15
36 -15 45 0 9 -13 43 -30 75 -16 32 -30 67 -30 77 0 10 -5 28 -12 40 -6 12
-15 35 -19 52 -13 53 -78 225 -105 278 -8 16 -14 39 -14 51 0 12 -7 31 -15 42
-8 10 -15 31 -15 45 0 14 -7 34 -15 45 -8 10 -15 31 -15 45 0 15 -7 32 -15 39
-8 7 -15 20 -15 29 0 10 -7 26 -15 37 -8 10 -15 31 -15 45 0 14 -7 34 -15 45
-8 10 -15 30 -15 44 0 14 -7 36 -15 50 -8 14 -14 35 -15 47 0 12 -6 28 -13 35
-7 7 -24 42 -37 78 -13 36 -24 66 -26 68 -3 4 -272 8 -284 4z m171 -383 c7
-36 22 -81 45 -137 8 -18 14 -39 14 -46 0 -8 14 -41 30 -74 17 -34 30 -68 30
-76 0 -8 6 -30 14 -48 17 -42 35 -94 46 -133 14 -50 32 -97 61 -162 16 -35 29
-69 29 -77 0 -9 6 -30 14 -48 23 -57 36 -101 30 -109 -8 -13 -681 -11 -689 1
-4 6 -2 16 4 23 5 7 40 103 76 212 37 110 71 205 75 210 5 6 38 98 73 204 36
106 70 198 76 204 6 6 11 17 11 24 0 24 31 74 43 70 7 -2 15 -19 18 -38z"/>
<path d="M24967 5354 c-4 -4 -7 -438 -7 -964 0 -806 2 -959 14 -969 9 -8 52
-11 127 -9 l114 3 5 395 5 395 144 3 c169 3 167 4 226 -112 42 -82 52 -100 80
-141 12 -17 26 -41 33 -55 7 -14 21 -38 32 -55 11 -16 26 -43 35 -60 8 -16 28
-52 45 -80 16 -27 33 -57 36 -65 4 -8 13 -22 20 -31 14 -16 57 -90 73 -124 5
-11 20 -32 34 -47 26 -28 27 -28 157 -28 108 0 132 3 137 15 3 9 -1 23 -10 33
-8 9 -25 37 -38 61 -13 24 -29 51 -34 60 -6 9 -22 34 -36 56 -14 22 -29 47
-33 55 -8 17 -19 35 -57 95 -14 22 -29 47 -33 55 -8 17 -21 39 -57 95 -14 22
-29 50 -33 63 -4 12 -12 22 -17 22 -5 0 -9 4 -9 9 0 6 -13 30 -30 54 -16 25
-30 50 -30 55 0 6 -6 17 -12 24 -14 15 -38 55 -38 63 0 3 8 5 18 5 10 0 27 7
38 15 10 8 27 15 37 15 34 0 152 72 205 123 28 28 52 55 52 59 0 4 14 27 30
51 17 25 30 50 30 56 0 6 10 39 22 73 23 68 29 196 14 298 -11 79 -80 205
-147 270 -36 35 -99 80 -112 80 -8 0 -20 7 -27 15 -7 8 -22 15 -34 15 -12 0
-26 4 -32 10 -5 5 -41 17 -79 27 -59 14 -131 17 -461 20 -214 2 -393 0 -397
-3z m803 -223 c100 -39 161 -81 181 -126 5 -11 13 -27 18 -35 38 -64 54 -240
26 -294 -8 -15 -15 -36 -15 -46 0 -10 -7 -23 -15 -30 -8 -7 -15 -19 -15 -28 0
-31 -117 -122 -158 -122 -9 0 -26 -7 -36 -15 -16 -12 -66 -15 -278 -15 l-258
0 0 365 0 366 258 -3 c186 -2 267 -7 292 -17z"/>
<path d="M27419 5349 c-5 -3 -8 -403 -7 -970 l3 -964 108 -3 c59 -1 114 1 123
6 13 7 15 92 14 693 0 377 3 688 6 692 10 10 44 -12 44 -29 0 -16 24 -76 41
-104 5 -8 12 -22 15 -30 3 -8 19 -43 35 -77 16 -35 29 -68 29 -76 0 -7 6 -21
14 -32 7 -11 16 -32 20 -47 3 -16 11 -28 16 -28 6 0 10 -6 10 -14 0 -13 42
-107 75 -168 8 -14 15 -35 15 -46 0 -11 7 -27 15 -36 8 -8 15 -17 15 -21 0 -3
12 -32 26 -63 14 -31 37 -82 51 -112 13 -30 31 -67 39 -82 8 -14 14 -35 14
-46 0 -11 7 -25 15 -32 8 -7 15 -18 15 -25 0 -7 12 -37 27 -67 56 -114 63
-129 63 -142 0 -7 7 -19 15 -26 8 -7 15 -23 15 -36 0 -36 36 -54 110 -54 38 0
73 5 81 13 23 18 49 64 49 85 0 11 7 25 15 32 8 7 15 20 15 29 0 9 6 25 13 36
7 11 28 56 46 100 18 44 37 87 42 95 5 8 12 22 15 30 3 8 19 43 35 76 16 34
29 65 29 69 0 5 13 36 29 69 16 34 44 93 61 131 17 39 40 88 51 111 10 22 19
48 19 57 0 9 4 17 10 17 5 0 13 12 16 28 4 15 15 43 25 62 41 83 69 148 69
162 0 9 7 21 15 28 8 7 15 18 15 24 0 23 65 146 77 146 10 0 13 -137 15 -697
l3 -698 100 -3 c55 -2 110 0 123 3 l22 5 -2 963 -3 962 -129 5 c-128 5 -128 5
-146 -20 -9 -14 -21 -36 -25 -50 -4 -14 -14 -34 -21 -45 -8 -11 -14 -29 -14
-41 0 -12 -7 -27 -15 -34 -8 -7 -15 -17 -15 -22 0 -9 -50 -123 -75 -171 -8
-16 -15 -34 -15 -42 0 -7 -7 -18 -15 -25 -8 -7 -15 -19 -15 -27 0 -9 -14 -45
-31 -82 -17 -36 -38 -82 -46 -101 -8 -19 -19 -42 -24 -50 -5 -8 -12 -22 -15
-30 -7 -20 -27 -62 -63 -139 -17 -34 -31 -71 -31 -81 0 -10 -7 -25 -15 -34 -8
-8 -15 -20 -15 -26 0 -6 -22 -57 -49 -113 -71 -149 -81 -173 -81 -190 0 -8 -7
-20 -15 -27 -8 -7 -15 -18 -15 -25 0 -7 -11 -35 -24 -62 -13 -26 -35 -70 -47
-96 -27 -56 -37 -65 -45 -40 -5 17 -15 38 -73 164 -12 25 -21 53 -21 62 0 10
-7 20 -15 23 -8 4 -15 14 -15 24 0 10 -11 40 -24 67 -46 93 -66 139 -66 155 0
9 -7 21 -15 28 -8 7 -15 19 -15 26 0 8 -13 40 -30 71 -16 31 -30 61 -30 68 0
7 -7 18 -15 25 -8 7 -15 25 -15 40 0 15 -7 33 -15 40 -8 7 -15 19 -15 26 0 8
-13 40 -30 71 -16 31 -30 61 -30 68 0 7 -7 18 -15 25 -8 7 -15 19 -15 27 0 17
-17 58 -61 148 -16 33 -29 65 -29 71 0 6 -7 17 -15 24 -8 7 -15 20 -15 29 -1
9 -9 34 -20 56 -11 22 -19 46 -20 53 0 6 -4 12 -9 12 -5 0 -13 10 -16 23 -4
12 -20 50 -37 84 l-29 62 -126 3 c-69 2 -129 0 -134 -3z"/>
<path d="M33510 5353 c0 -5 0 -440 0 -967 0 -842 1 -961 14 -968 9 -5 64 -7
123 -6 l108 3 5 395 5 395 143 3 c78 1 150 -2 160 -7 9 -5 35 -44 57 -87 22
-42 59 -107 83 -143 23 -36 42 -69 42 -75 0 -5 6 -17 14 -25 12 -14 41 -63 96
-166 8 -16 33 -57 54 -89 21 -33 41 -67 44 -75 10 -26 64 -105 80 -118 22 -18
279 -18 284 -1 3 7 -11 35 -29 62 -18 28 -33 56 -33 62 0 7 -4 14 -8 16 -11 4
-82 123 -82 136 0 6 -4 12 -8 14 -8 3 -82 121 -82 130 0 3 -20 36 -45 74 -25
37 -45 71 -45 75 0 4 -20 38 -45 76 -25 37 -45 72 -45 76 0 5 -11 23 -25 41
-30 39 -31 46 -7 46 10 0 27 7 38 15 10 8 31 15 46 15 15 0 29 4 32 9 3 4 30
21 60 36 88 44 204 181 222 262 3 16 12 42 19 58 21 48 29 187 15 273 -10 67
-53 178 -85 220 -43 57 -152 152 -175 152 -9 0 -21 5 -28 12 -15 15 -67 33
-166 58 -72 18 -112 20 -457 20 -209 0 -379 -3 -379 -7z m800 -222 c141 -55
184 -99 224 -225 21 -65 21 -205 1 -232 -8 -10 -15 -26 -15 -34 0 -26 -35 -87
-69 -121 -34 -34 -95 -69 -121 -69 -8 0 -24 -7 -34 -15 -16 -12 -66 -15 -278
-15 l-258 0 0 358 c0 197 3 362 7 366 4 3 120 5 257 4 183 -3 260 -7 286 -17z"/>
</g>
</svg>
