<?xml version="1.0" standalone="no"?>
<!DOCTYPE svg PUBLIC "-//W3C//DTD SVG 20010904//EN"
 "http://www.w3.org/TR/2001/REC-SVG-20010904/DTD/svg10.dtd">
<svg version="1.0" xmlns="http://www.w3.org/2000/svg"
 width="877.000000pt" height="877.000000pt" viewBox="0 0 877.000000 877.000000"
 preserveAspectRatio="xMidYMid meet">

<g transform="translate(0.000000,877.000000) scale(0.100000,-0.100000)"
fill="#000000" stroke="none">
<path d="M2360 8635 c-56 -42 -112 -80 -125 -85 -19 -7 -54 1 -152 35 -70 24
-131 41 -135 39 -13 -8 -9 -24 36 -149 49 -135 49 -139 -12 -214 -61 -74 -112
-150 -112 -166 0 -13 22 -15 139 -15 l138 0 44 -48 c24 -26 66 -78 92 -115 31
-45 54 -67 64 -65 12 2 27 37 51 113 42 138 65 165 171 199 42 14 95 30 119
36 61 16 56 38 -23 89 -36 23 -88 64 -117 90 l-51 47 -1 139 c-1 93 -5 140
-12 142 -6 2 -57 -30 -114 -72z"/>
<path d="M4310 7458 c-100 -76 -99 -76 -190 -46 -91 30 -90 30 -60 -57 29 -86
27 -102 -30 -172 -27 -34 -50 -64 -50 -67 0 -3 38 -6 84 -6 l83 0 39 -43 c22
-24 51 -59 65 -78 l26 -33 21 70 c27 87 56 117 145 144 37 11 67 24 67 28 0 4
-12 15 -28 24 -15 9 -48 35 -74 58 l-47 41 -3 85 -3 86 -45 -34z"/>
<path d="M535 7343 c23 -62 18 -199 -10 -265 -6 -15 -3 -16 47 -2 80 21 169
18 255 -10 22 -7 22 -7 6 39 -16 47 -14 200 3 254 6 22 5 24 -17 17 -101 -29
-177 -29 -276 0 -21 6 -21 5 -8 -33z"/>
<path d="M2291 6715 c-47 -21 -356 -329 -380 -379 -29 -60 -35 -110 -21 -164
12 -44 182 -217 3024 -3060 2074 -2075 3024 -3019 3052 -3032 57 -28 128 -26
191 5 68 34 346 317 374 381 25 55 24 133 -2 184 -27 53 -6025 6046 -6069
6063 -47 19 -127 20 -169 2z m237 -317 c64 -62 417 -414 785 -782 l668 -669
-158 -159 -158 -158 -772 772 c-522 522 -776 783 -783 804 -16 48 1 79 98 178
161 164 165 164 320 14z"/>
<path d="M4818 6083 l-48 -35 -60 20 c-33 10 -60 19 -60 18 0 -1 7 -23 15 -50
21 -69 20 -77 -20 -130 l-36 -46 51 0 c64 0 81 -9 124 -66 36 -47 40 -47 50 2
9 39 72 101 110 108 41 7 45 16 16 34 -60 39 -89 80 -92 131 l-3 50 -47 -36z"/>
<path d="M6170 5785 c13 -33 13 -140 0 -183 -8 -30 -7 -33 8 -27 43 16 105 21
157 12 31 -5 58 -8 60 -6 1 2 -1 29 -7 60 -6 36 -6 75 0 110 6 30 10 55 9 56
-1 1 -25 -3 -52 -8 -46 -9 -139 -5 -172 8 -11 4 -11 0 -3 -22z"/>
<path d="M420 5586 c52 -122 58 -296 13 -427 l-28 -84 70 25 c61 21 87 24 205
24 121 0 143 -2 208 -26 39 -14 72 -25 72 -23 0 2 -8 23 -18 47 -65 150 -60
310 13 490 6 14 -3 13 -62 -8 -125 -45 -302 -43 -439 6 l-52 18 18 -42z"/>
<path d="M2330 4730 c-75 -57 -93 -60 -185 -26 -75 27 -76 25 -45 -56 30 -81
27 -107 -25 -174 -25 -31 -45 -61 -45 -66 0 -4 34 -8 76 -8 41 0 84 -5 94 -10
11 -6 40 -40 66 -76 26 -36 50 -62 54 -57 4 4 15 33 25 63 25 78 65 116 147
141 38 12 68 22 68 24 0 2 -24 19 -52 38 -96 64 -107 81 -110 174 l-3 82 -65
-49z"/>
<path d="M2976 3101 c-9 -10 -32 -26 -50 -36 -33 -18 -36 -18 -81 -1 -25 10
-48 16 -51 14 -2 -3 3 -24 11 -48 21 -59 20 -65 -20 -117 -19 -25 -35 -49 -35
-53 0 -4 23 -5 51 -2 l51 5 53 -56 53 -56 12 44 c15 53 51 89 107 105 l42 13
-55 51 c-52 50 -54 54 -54 104 0 56 -7 63 -34 33z"/>
</g>
</svg>
